PathFileType	4	(X/Y/Z)	C:/Users/beibeiliu/ov580/test_trc\sequence.8_training_dense_left.trc
DataRate	CameraRate	NumFrames	NumMarkers	Units	OrigDataRate	OrigDataStartFrame	OrigNumFrames
120	120	11	19	mm	120	329	375
Frame#	Time	ThumbCMC			ThumbMCP			ThumbIP			ThumbTip			IndexMCP			IndexPIP			IndexTip			MiddleMCP			MiddlePIP			MiddleTip			RingMCP			RingPIP			RingTip			PinkyMCP			PinkyPIP			PinkyTip			BackHand1			BackHand2			BackHand3	
		X0	Y0	Z0	X1	Y1	Z1	X2	Y2	Z2	X3	Y3	Z3	X4	Y4	Z4	X5	Y5	Z5	X6	Y6	Z6	X7	Y7	Z7	X8	Y8	Z8	X9	Y9	Z9	X10	Y10	Z10	X11	Y11	Z11	X12	Y12	Z12	X13	Y13	Z13	X14	Y14	Z14	X15	Y15	Z15	X16	Y16	Z16	X17	Y17	Z17	X18	Y18	Z18	
328	2.73333	-163.545	-3.41625	-2.2066	-148.465	-13.562	-14.5972	-133.304	-16.8465	-32.6159	-119.983	-21.2932	-40.8723	-164.344	-6.82813	-66.6278	-159.415	-12.5702	-93.4776	-154.628	-17.37	-110.456	-190.3	-6.84696	-77.0972	-193.415	-12.3482	-99.4875	-188.955	-18.3925	-126.61	-212.453	-9.71203	-69.5929	-215.831	-13.3024	-90.0188	-215.323	-17.487	-112.585	-234.659	-13.7682	-54.3634	-240.751	-19.2388	-72.7043	-248.173	-21.0427	-92.6155	-213.021	6.78491	-33.0719	-213.605	14.6785	-8.43943	-183.252	13.5997	-19.1989	
329	2.74167	-167.87	-4.32303	-0.342202	-146.316	-13.0257	-15.6375	-129.837	-16.3514	-30.5584	-116.312	-20.8075	-41.0531	-164.181	-7.05887	-70.5891	-156.359	-13.0037	-90.1398	-154.468	-18.2403	-112.266	-188.486	-6.86596	-76.0322	-191.455	-12.6299	-101.574	-190.872	-19.5484	-128.888	-214.439	-9.13931	-69.2907	-214.915	-13.5421	-94.2039	-217.059	-17.0963	-112.134	-232.766	-14.9919	-58.5229	-237.316	-18.5086	-73.1574	-247.775	-21.1845	-87.8862	-213.401	6.7056	-31.8025	-213.698	11.9888	-8.51274	-186.966	11.7114	-17.81	
330	2.75	-162.94	-5.05002	-1.70889	-146.918	-14.3696	-14.4678	-132.225	-18.0229	-32.3623	-115.261	-21.7253	-37.1752	-163.952	-7.90097	-66.3593	-159.129	-12.9211	-90.4346	-149.518	-18.2962	-108.334	-188.414	-8.2004	-78.7029	-188.507	-13.015	-101.876	-191.42	-20.0876	-126.189	-209.21	-10.2169	-68.2417	-210.435	-14.587	-94.3349	-211.076	-17.9671	-113.07	-233.699	-15.1992	-57.5114	-239.047	-20.8496	-74.0697	-244.07	-21.392	-89.1121	-207.875	6.34404	-28.4899	-211.225	13.418	-7.024	-185.302	10.6192	-16.9653	
331	2.75833	-166.272	-5.94519	2.21786	-142.508	-14.6943	-14.646	-129	-19.1745	-26.2997	-112.889	-22.8034	-41.1495	-161.391	-9.32013	-69.6666	-159.128	-14.923	-88.2893	-151.758	-22.0118	-112.48	-185.079	-8.48792	-74.4001	-187.49	-14.1461	-99.1059	-186.146	-21.9192	-127.911	-207.563	-12.021	-70.4527	-209.327	-14.9522	-90.3946	-212.871	-20.0998	-110.778	-227.938	-16.2819	-55.1205	-238.908	-21.7967	-72.7816	-246.334	-22.3899	-90.1749	-206.114	3.85602	-26.6504	-209.7	11.9464	-2.23979	-184.139	11.0317	-14.9841	
332	2.76667	-163.281	-7.08165	-1.74545	-145.659	-17.0349	-12.466	-129.606	-21.1392	-27.2986	-115.4	-24.4477	-36.1162	-160.334	-11.4171	-66.0282	-155.332	-17.4381	-91.3819	-151.78	-24.4218	-111.933	-185.613	-10.6921	-78.8767	-182.985	-14.6671	-98.2946	-188.049	-22.646	-124.175	-210.817	-12.9273	-70.0318	-212.107	-16.3716	-91.9322	-209.444	-20.4539	-111.683	-225.327	-17.1676	-55.3666	-237.26	-22.4308	-75.139	-244.882	-24.1847	-86.896	-207.21	2.49984	-28.6705	-212.119	12.1304	-6.79829	-184.904	9.99215	-15.6556	
333	2.775	-160.936	-6.75588	-1.59287	-141.89	-16.4934	-10.9929	-127.213	-21.5344	-27.4264	-113.477	-24.9206	-36.8053	-162.709	-12.0608	-66.2998	-153.992	-16.7972	-86.3519	-147.102	-24.4076	-108.387	-184.762	-11.1248	-77.6509	-184.997	-16.1055	-100.558	-186.172	-23.0013	-124.393	-208.116	-13.6318	-69.5179	-210.008	-17.9644	-91.5632	-212.867	-22.3238	-114.837	-228.963	-18.9148	-58.0305	-232.274	-21.628	-70.6747	-241.493	-22.4919	-87.5616	-207.054	0.537639	-31.9879	-207.584	9.58082	-3.81249	-181.455	9.49139	-17.8323	
334	2.78333	-165.167	-8.14061	-0.962035	-143.557	-17.5218	-13.2364	-128.413	-22.108	-30.4987	-115.561	-27.0321	-36.0897	-163.618	-12.8842	-68.9919	-154.676	-18.2072	-87.8558	-148.379	-26.1201	-112.252	-185.135	-12.1744	-74.4687	-184.66	-16.4777	-98.8506	-182.484	-24.4047	-125.859	-204.759	-13.6774	-72.9965	-211.567	-18.599	-93.8575	-209.265	-22.5972	-110.92	-226.263	-18.3986	-55.39	-235.767	-23.4612	-71.8791	-242.903	-24.8192	-89.4458	-206.652	1.30589	-28.8123	-207.428	9.79309	-5.30523	-179.843	7.68668	-17.0404	
335	2.79167	-160.221	-7.35167	-1.92554	-146.448	-18.7807	-14.5357	-130.067	-23.3468	-29.8017	-114.579	-27.732	-40.2646	-161.246	-12.973	-66.6833	-154.539	-18.5349	-88.4184	-150.806	-25.5668	-109.504	-184.188	-13.2466	-78.8028	-182.276	-17.6932	-101.591	-186.335	-25.3797	-125.409	-205	-13.9984	-69.4564	-210.893	-18.4869	-90.4367	-209.517	-22.5405	-114.416	-229.777	-19.8018	-55.6866	-233.551	-24.4637	-74.9938	-241.208	-25.6122	-88.7043	-205.926	1.31267	-30.5071	-207.665	10.4889	-3.67719	-185.606	6.24864	-18.0374	
336	2.8	-166.047	-8.77181	-1.22899	-145.642	-18.8834	-12.3937	-129.949	-24.3604	-32.0765	-111.862	-28.2216	-40.9351	-160.578	-13.1328	-68.4111	-155.893	-18.4385	-87.2447	-147.299	-26.2607	-111.108	-187.1	-12.6601	-77.6569	-182.332	-19.2323	-101.217	-184.321	-24.4221	-124.524	-210.239	-15.6482	-69.4928	-209.193	-19.7272	-94.2112	-208.096	-22.6286	-114.849	-228.068	-18.7531	-58.4454	-236.682	-23.773	-75.4612	-239.364	-24.82	-90.4972	-206.523	1.21441	-27.3698	-207.18	9.59218	-3.45467	-184.793	7.75496	-19.9867	
337	2.80833	-162.05	-8.91778	-2.21439	-141.541	-19.0952	-13.8028	-131.03	-24.1804	-27.4073	-111.193	-28.5545	-39.4202	-161.43	-12.6954	-69.1237	-157.242	-19.8754	-90.2962	-147.063	-26.7566	-111.254	-187.705	-12.2926	-78.5918	-182.542	-17.7911	-99.731	-184.673	-25.0144	-124.302	-205.992	-14.871	-68.2864	-211.239	-19.7373	-94.7213	-211.394	-22.5622	-112.25	-229.576	-19.526	-55.4675	-237.485	-24.0997	-72.7103	-242.883	-24.6621	-88.4622	-210.422	-0.42491	-30.9073	-208.981	9.24711	-8.10248	-183.767	8.13759	-17.2911	
338	2.81667	-163.247	-9.18314	-1.07703	-144.333	-19.7565	-16.2259	-130.208	-24.6145	-27.0142	-112.004	-28.2138	-38.832	-161.652	-13.6253	-69.3615	-156.804	-19.1178	-88.8584	-146.945	-27.0479	-111.615	-183.746	-12.2077	-76.5944	-184.415	-19.3775	-102.603	-184.097	-24.4806	-124.453	-207.315	-14.6059	-74.1906	-211.337	-19.3721	-95.7831	-209.023	-23.5899	-115.069	-227.087	-20.0444	-58.4564	-233.139	-23.6848	-76.4421	-243.61	-23.9326	-88.1265	-209.47	1.88176	-30.6161	-208.055	8.24489	-5.74388	-181.683	4.95212	-19.5803	
